<?xml version="1.0" encoding="UTF-8"?>
<svg xmlns="http://www.w3.org/2000/svg" xmlns:xlink="http://www.w3.org/1999/xlink" width="500px" height="563px" viewBox="0 0 500 562" version="1.1">
<defs>
<clipPath id="clip1">
  <path d="M 100 290.863281 L 400 290.863281 L 400 328.230469 L 100 328.230469 Z M 100 290.863281 "/>
</clipPath>
<clipPath id="clip2">
  <path d="M 224.15625 233.765625 L 275.847656 233.765625 L 275.847656 285.410156 L 224.15625 285.410156 Z M 224.15625 233.765625 "/>
</clipPath>
</defs>
<g id="surface1">
<path style=" stroke:none;fill-rule:nonzero;fill:rgb(60%,48.235294%,84.313725%);fill-opacity:1;" d="M 32.75 354.714844 L 38.574219 361.988281 L 35.664062 352.535156 C 34.933594 348.171875 29.839844 353.261719 32.75 354.714844 M 39.300781 350.351562 C 41.484375 353.988281 43.667969 357.625 43.667969 361.261719 C 43.667969 366.351562 48.035156 368.53125 51.671875 369.984375 C 46.578125 364.167969 43.667969 348.171875 39.300781 350.351562 M 318.777344 42.039062 C 331.148438 42.039062 342.792969 40.585938 355.894531 43.492188 C 387.917969 51.492188 414.847656 67.488281 433.042969 90.03125 L 483.988281 171.472656 C 486.171875 191.832031 490.539062 214.375 489.8125 239.097656 C 494.90625 239.097656 494.179688 231.828125 500 230.371094 C 494.179688 244.914062 491.265625 263.09375 489.8125 284.179688 C 486.171875 272.546875 489.8125 255.09375 490.539062 245.640625 C 485.445312 253.640625 482.53125 247.824219 482.53125 244.1875 C 483.261719 238.371094 480.351562 239.097656 478.164062 236.914062 C 470.160156 229.644531 465.066406 221.644531 459.242188 209.285156 C 462.882812 199.832031 463.609375 186.015625 451.964844 178.742188 C 448.328125 176.5625 443.960938 172.925781 441.777344 167.109375 C 438.867188 159.109375 433.769531 149.65625 435.226562 137.296875 C 435.953125 133.660156 424.308594 145.296875 417.757812 140.203125 C 389.375 120.574219 360.988281 98.03125 326.78125 79.125 C 308.585938 79.125 295.488281 72.578125 288.9375 64.578125 C 283.117188 57.308594 287.480469 47.855469 296.214844 47.128906 C 301.3125 47.128906 307.132812 45.671875 311.5 48.582031 C 312.226562 45.675781 315.140625 42.039062 318.777344 42.039062 M 246.726562 25.3125 L 248.179688 26.039062 C 255.460938 27.496094 259.097656 37.675781 267.101562 34.039062 C 267.101562 39.128906 267.832031 44.21875 266.375 47.855469 C 264.191406 53.671875 257.640625 53.671875 252.546875 53.671875 C 203.785156 50.765625 175.398438 71.125 145.5625 88.574219 C 137.554688 93.667969 128.820312 97.300781 122.269531 103.847656 C 90.976562 132.933594 56.769531 159.835938 48.761719 213.648438 L 42.210938 273.273438 C 41.484375 279.816406 34.207031 286.363281 35.664062 294.363281 L 40.757812 329.992188 C 35.660156 324.902344 32.75 331.449219 34.207031 334.355469 C 34.933594 336.535156 37.84375 343.808594 42.210938 337.265625 C 48.035156 348.171875 53.859375 369.257812 61.863281 378.710938 C 86.609375 407.796875 118.632812 433.976562 144.832031 460.152344 C 151.382812 458.699219 156.476562 458.699219 157.933594 454.335938 C 160.117188 458.699219 155.75 463.0625 152.109375 463.789062 C 163.757812 471.0625 176.855469 477.605469 194.324219 479.058594 C 216.886719 480.511719 237.992188 484.148438 257.640625 489.238281 C 267.832031 486.332031 278.019531 484.875 288.9375 484.148438 C 292.578125 484.148438 294.757812 478.332031 299.125 476.878906 L 299.855469 469.605469 C 304.222656 476.148438 303.492188 467.425781 300.582031 463.0625 C 305.679688 467.425781 307.132812 471.0625 309.316406 473.96875 C 309.316406 471.789062 315.136719 463.789062 315.140625 473.242188 L 316.59375 463.789062 C 318.777344 462.332031 319.503906 471.789062 321.6875 465.242188 C 323.871094 458.699219 328.238281 463.789062 332.605469 461.605469 C 331.148438 464.515625 331.878906 470.332031 336.972656 466.699219 L 342.796875 461.605469 C 346.433594 470.332031 352.257812 466.699219 355.167969 465.242188 C 387.191406 444.882812 419.214844 420.886719 449.78125 396.890625 L 449.054688 406.34375 L 452.691406 394.707031 C 456.332031 398.34375 459.242188 395.4375 460.699219 393.253906 C 465.066406 385.984375 470.886719 378.710938 480.351562 372.167969 C 468.703125 403.433594 454.875 428.15625 437.410156 448.519531 L 430.132812 457.246094 C 430.132812 462.335938 428.675781 468.878906 422.851562 469.605469 C 419.941406 470.332031 414.117188 468.152344 409.753906 472.515625 C 407.570312 475.421875 414.847656 481.242188 409.023438 476.878906 C 403.929688 473.242188 398.835938 476.878906 393.011719 478.332031 C 388.644531 479.789062 395.921875 484.148438 397.378906 487.058594 C 398.835938 489.964844 400.289062 492.875 399.5625 496.511719 L 391.558594 487.785156 C 382.097656 492.875 376.273438 502.328125 368.265625 509.601562 C 364.628906 512.507812 366.085938 517.597656 366.085938 521.960938 C 360.988281 521.960938 355.167969 520.503906 352.257812 523.414062 C 350.074219 526.324219 350.800781 530.6875 350.800781 535.050781 C 343.523438 534.324219 342.792969 523.414062 336.246094 525.597656 C 329.695312 527.050781 322.417969 527.777344 316.59375 531.414062 C 320.960938 540.140625 309.316406 535.050781 310.773438 536.503906 C 299.855469 529.960938 290.394531 524.867188 278.75 529.230469 C 254.003906 521.234375 223.4375 524.867188 200.875 527.777344 C 200.875 524.144531 201.601562 520.507812 200.144531 519.78125 C 198.6875 523.414062 194.324219 521.960938 195.050781 521.960938 C 181.222656 512.507812 167.394531 506.691406 152.839844 498.691406 C 139.738281 500.148438 127.367188 493.601562 123.726562 489.964844 C 113.539062 480.511719 101.890625 485.601562 92.429688 483.421875 C 72.054688 478.332031 64.773438 457.242188 62.589844 442.703125 C 61.132812 435.429688 55.3125 432.519531 53.128906 433.246094 C 43.667969 402.707031 29.113281 375.074219 17.46875 346.714844 C 14.554688 339.445312 15.285156 332.171875 15.285156 324.175781 C 18.921875 325.628906 22.5625 324.902344 21.835938 319.8125 C 18.195312 295.816406 9.460938 277.636719 0 260.1875 C 5.09375 235.460938 5.820312 206.375 17.46875 184.5625 C 27.65625 164.929688 46.578125 154.746094 59.679688 138.023438 C 64.046875 132.207031 64.046875 124.207031 68.414062 119.117188 C 82.96875 104.574219 97.527344 89.304688 113.539062 76.214844 C 120.816406 70.398438 129.546875 76.214844 140.464844 74.035156 C 144.105469 60.945312 158.660156 49.3125 172.488281 52.945312 C 178.3125 54.402344 189.957031 39.128906 193.59375 37.675781 C 199.417969 35.496094 196.507812 43.492188 196.507812 48.582031 C 210.335938 37.675781 229.257812 31.859375 246.726562 25.3125 "/>
<g clip-path="url(#clip1)" clip-rule="nonzero">
<path style=" stroke:none;fill-rule:nonzero;fill:rgb(48.235294%,48.235294%,57.254902%);fill-opacity:1;" d="M 114.507812 327.394531 C 118.054688 327.394531 120.9375 326.894531 123.152344 325.894531 C 125.378906 324.898438 126.976562 323.605469 127.945312 322.007812 C 128.917969 320.414062 129.402344 318.664062 129.402344 316.761719 C 129.402344 315.476562 129.066406 314.230469 128.394531 313.015625 C 127.722656 311.800781 126.730469 310.785156 125.425781 309.964844 C 124.117188 309.148438 122.550781 308.691406 120.722656 308.589844 L 120.722656 308.398438 C 122.734375 307.671875 124.195312 306.566406 125.113281 305.085938 C 126.03125 303.605469 126.492188 302.023438 126.492188 300.34375 C 126.492188 298.867188 126.054688 297.515625 125.183594 296.285156 C 124.320312 295.054688 122.96875 294.074219 121.136719 293.339844 C 119.308594 292.601562 117.015625 292.230469 114.253906 292.230469 C 112.066406 292.230469 109.941406 292.339844 107.878906 292.5625 C 105.820312 292.792969 103.355469 293.109375 100.480469 293.511719 L 100.195312 295.667969 L 104.988281 296.515625 L 104.988281 324.011719 L 100.308594 325.320312 L 100 327.394531 Z M 110.355469 294.832031 C 111.234375 294.699219 111.984375 294.636719 112.601562 294.636719 C 115.699219 294.636719 117.910156 295.347656 119.230469 296.765625 C 120.5625 298.179688 121.226562 299.914062 121.226562 301.96875 C 121.226562 303.550781 120.921875 304.847656 120.308594 305.863281 C 119.707031 306.878906 118.796875 307.640625 117.582031 308.144531 L 110.355469 308.144531 Z M 110.355469 310.46875 L 116.605469 310.46875 C 118.148438 310.46875 119.476562 310.820312 120.585938 311.523438 C 121.6875 312.21875 122.515625 313.117188 123.074219 314.21875 C 123.632812 315.316406 123.910156 316.472656 123.910156 317.6875 C 123.910156 318.917969 123.628906 320.070312 123.0625 321.136719 C 122.488281 322.214844 121.644531 323.078125 120.527344 323.726562 C 119.402344 324.382812 118.070312 324.710938 116.523438 324.710938 L 110.355469 324.710938 Z M 137.855469 297.464844 C 138.453125 297.464844 139.015625 297.308594 139.542969 296.996094 C 140.078125 296.691406 140.496094 296.277344 140.804688 295.757812 C 141.109375 295.230469 141.261719 294.664062 141.261719 294.050781 C 141.261719 293.15625 140.929688 292.402344 140.265625 291.78125 C 139.589844 291.171875 138.789062 290.867188 137.855469 290.867188 C 136.953125 290.867188 136.171875 291.167969 135.515625 291.773438 C 134.851562 292.375 134.519531 293.117188 134.519531 293.996094 C 134.519531 294.613281 134.667969 295.1875 134.964844 295.714844 C 135.265625 296.246094 135.667969 296.671875 136.179688 296.984375 C 136.695312 297.304688 137.25 297.464844 137.855469 297.464844 Z M 131.191406 327.394531 L 144.621094 327.394531 L 144.929688 325.160156 L 140.457031 324.152344 L 140.457031 303.332031 L 139.757812 302.632812 L 131.890625 303.285156 L 131.523438 305.40625 L 135.746094 306.941406 L 135.746094 324.152344 L 131.523438 325.183594 Z M 161.8125 327.394531 L 162.097656 324.964844 L 155.574219 324.011719 L 155.574219 313.300781 C 155.757812 311.972656 156.125 310.851562 156.675781 309.945312 C 157.226562 309.027344 157.835938 308.339844 158.507812 307.882812 C 159.183594 307.421875 159.796875 307.195312 160.355469 307.195312 C 160.898438 307.195312 161.46875 307.292969 162.0625 307.492188 C 162.660156 307.691406 163.230469 307.957031 163.773438 308.292969 C 164.835938 307.390625 165.367188 306.355469 165.367188 305.1875 C 165.367188 304.347656 165.082031 303.613281 164.507812 302.988281 C 163.925781 302.363281 163.175781 302.050781 162.257812 302.050781 C 161.417969 302.050781 160.570312 302.335938 159.714844 302.910156 C 158.855469 303.472656 158.046875 304.324219 157.28125 305.464844 C 156.519531 306.601562 155.890625 307.980469 155.402344 309.601562 L 154.875 309.601562 L 155.4375 303.171875 L 154.78125 302.496094 L 146.753906 303.527344 L 146.363281 305.660156 L 150.917969 307.035156 L 150.917969 324.207031 L 146.640625 325.320312 L 146.363281 327.394531 Z M 179.929688 327.394531 L 180.230469 325.183594 L 176.226562 324.207031 L 176.226562 308.570312 C 176.921875 307.78125 177.757812 307.179688 178.726562 306.757812 C 179.699219 306.347656 180.703125 306.140625 181.742188 306.140625 C 182.636719 306.140625 183.453125 306.34375 184.1875 306.746094 C 184.910156 307.160156 185.484375 307.738281 185.90625 308.488281 C 186.328125 309.230469 186.535156 310.078125 186.535156 311.03125 L 186.535156 324.207031 L 182.867188 325.320312 L 182.558594 327.394531 L 194.964844 327.394531 L 195.242188 325.183594 L 191.101562 324.207031 L 191.101562 308.933594 C 191.917969 308.058594 192.734375 307.371094 193.542969 306.871094 C 194.355469 306.382812 195.320312 306.140625 196.445312 306.140625 C 197.898438 306.140625 199.042969 306.605469 199.886719 307.539062 C 200.726562 308.46875 201.148438 309.632812 201.148438 311.03125 L 201.148438 324.230469 L 197.648438 325.355469 L 197.453125 327.394531 L 209.347656 327.394531 L 209.714844 325.183594 L 205.847656 324.175781 L 205.847656 310.355469 C 205.847656 305.152344 203.648438 302.554688 199.242188 302.554688 C 197.585938 302.554688 196.039062 302.96875 194.609375 303.800781 C 193.179688 304.628906 191.972656 305.671875 190.984375 306.941406 L 190.652344 306.941406 C 190.242188 305.359375 189.460938 304.195312 188.3125 303.445312 C 187.167969 302.699219 185.882812 302.324219 184.460938 302.324219 C 182.816406 302.324219 181.253906 302.746094 179.769531 303.585938 C 178.289062 304.425781 177.054688 305.460938 176.066406 306.691406 L 175.8125 306.691406 L 176.320312 303.171875 L 175.8125 302.578125 L 167.292969 303.757812 L 167.019531 305.851562 L 171.503906 307.285156 L 171.503906 324.207031 L 167.292969 325.320312 L 167.019531 327.394531 Z M 213.96875 295.5625 L 213.96875 326.019531 C 215.03125 326.691406 216.242188 327.195312 217.601562 327.53125 C 218.972656 327.867188 220.324219 328.035156 221.664062 328.035156 C 224.132812 328.035156 226.421875 327.484375 228.53125 326.386719 C 230.632812 325.285156 232.316406 323.691406 233.578125 321.609375 C 234.839844 319.515625 235.46875 317.042969 235.46875 314.195312 C 235.46875 311.855469 235.089844 309.785156 234.335938 307.984375 C 233.578125 306.175781 232.519531 304.765625 231.160156 303.757812 C 229.796875 302.75 228.21875 302.242188 226.421875 302.242188 C 224.929688 302.242188 223.53125 302.625 222.226562 303.390625 C 220.917969 304.152344 219.660156 305.21875 218.453125 306.585938 L 218.140625 306.585938 L 218.53125 303.640625 L 218.53125 292.011719 L 217.855469 291.359375 L 210.101562 291.953125 L 209.734375 294.074219 Z M 218.53125 308.589844 C 220.230469 306.804688 222.226562 305.910156 224.519531 305.910156 C 226.015625 305.910156 227.207031 306.425781 228.085938 307.457031 C 228.957031 308.496094 229.570312 309.777344 229.929688 311.296875 C 230.28125 312.816406 230.457031 314.378906 230.457031 315.980469 C 230.457031 317.976562 230.1875 319.644531 229.644531 320.988281 C 229.101562 322.332031 228.375 323.328125 227.464844 323.980469 C 226.546875 324.636719 225.539062 324.964844 224.4375 324.964844 C 223.222656 324.964844 222.074219 324.785156 220.996094 324.425781 C 219.910156 324.074219 219.089844 323.621094 218.53125 323.0625 Z M 250.195312 327.394531 L 250.527344 325.160156 L 246.445312 324.152344 L 246.445312 308.511719 C 247.339844 307.578125 248.234375 306.929688 249.128906 306.5625 C 250.023438 306.203125 250.929688 306.023438 251.847656 306.023438 C 253.152344 306.023438 254.28125 306.429688 255.230469 307.238281 C 256.183594 308.050781 256.664062 309.359375 256.664062 311.167969 L 256.664062 324.207031 L 252.796875 325.320312 L 252.464844 327.394531 L 265.035156 327.394531 L 265.367188 325.183594 L 261.308594 324.207031 L 261.308594 310.640625 C 261.308594 307.472656 260.714844 305.277344 259.53125 304.054688 C 258.34375 302.832031 256.671875 302.222656 254.507812 302.222656 C 251.648438 302.222656 248.902344 303.675781 246.273438 306.585938 L 245.996094 306.585938 L 246.445312 303.617188 L 246.445312 291.726562 L 245.746094 291.0625 L 237.648438 291.667969 L 237.316406 293.800781 L 241.800781 295.3125 L 241.800781 324.152344 L 237.488281 325.183594 L 237.179688 327.394531 Z M 277.71875 328.230469 C 279.546875 328.230469 281.257812 327.902344 282.855469 327.246094 C 284.445312 326.582031 285.804688 325.660156 286.925781 324.484375 L 286.339844 323.003906 C 285.425781 323.488281 284.621094 323.839844 283.933594 324.058594 C 283.238281 324.289062 282.628906 324.425781 282.109375 324.472656 C 281.589844 324.519531 280.878906 324.539062 279.976562 324.539062 C 278.339844 324.539062 276.945312 324.070312 275.792969 323.132812 C 274.644531 322.183594 273.773438 320.976562 273.175781 319.511719 C 272.582031 318.035156 272.242188 316.515625 272.167969 314.949219 L 285.722656 314.777344 C 285.835938 314.289062 285.941406 313.671875 286.03125 312.921875 C 286.125 312.167969 286.167969 311.574219 286.167969 311.148438 C 286.167969 309.246094 285.835938 307.625 285.171875 306.289062 C 284.515625 304.953125 283.617188 303.945312 282.476562 303.265625 C 281.339844 302.582031 280.078125 302.242188 278.691406 302.242188 C 276.828125 302.242188 275.007812 302.773438 273.234375 303.835938 C 271.460938 304.898438 270.007812 306.429688 268.875 308.429688 C 267.753906 310.425781 267.191406 312.753906 267.191406 315.421875 C 267.191406 318.125 267.683594 320.445312 268.667969 322.386719 C 269.65625 324.328125 270.960938 325.785156 272.582031 326.761719 C 274.195312 327.742188 275.90625 328.230469 277.71875 328.230469 Z M 277.316406 304.984375 C 279.894531 304.984375 281.179688 306.71875 281.179688 310.195312 C 281.179688 310.46875 281.167969 310.8125 281.148438 311.214844 C 281.117188 311.613281 281.074219 311.914062 281.019531 312.121094 L 272.226562 312.761719 C 272.316406 311.050781 272.617188 309.613281 273.128906 308.441406 C 273.652344 307.273438 274.28125 306.40625 275.023438 305.839844 C 275.773438 305.269531 276.535156 304.984375 277.316406 304.984375 Z M 302.179688 327.394531 L 302.570312 325.183594 L 298.40625 324.207031 L 298.40625 308.511719 C 299.09375 307.746094 299.921875 307.15625 300.894531 306.734375 C 301.867188 306.316406 302.875 306.105469 303.921875 306.105469 C 305.390625 306.105469 306.566406 306.527344 307.453125 307.378906 C 308.339844 308.226562 308.785156 309.515625 308.785156 311.25 L 308.785156 324.207031 L 304.917969 325.355469 L 304.644531 327.394531 L 317.214844 327.394531 L 317.5 325.183594 L 313.464844 324.207031 L 313.464844 310.160156 C 313.464844 307.648438 312.886719 305.699219 311.730469 304.316406 C 310.570312 302.933594 308.898438 302.242188 306.71875 302.242188 C 305.078125 302.242188 303.523438 302.664062 302.0625 303.503906 C 300.613281 304.34375 299.355469 305.398438 298.292969 306.667969 L 298.003906 306.667969 L 298.484375 303.082031 L 298.003906 302.554688 L 289.667969 303.640625 L 289.378906 305.773438 L 293.691406 307.226562 L 293.691406 324.207031 L 289.472656 325.355469 L 289.1875 327.394531 Z M 324.632812 328.070312 C 326.652344 328.070312 328.300781 327.609375 329.574219 326.683594 C 330.851562 325.757812 331.761719 324.773438 332.304688 323.726562 L 332.613281 323.726562 L 332.613281 324.152344 C 332.613281 324.761719 332.761719 325.355469 333.050781 325.925781 C 333.332031 326.492188 333.804688 326.960938 334.460938 327.335938 C 335.109375 327.710938 335.941406 327.898438 336.949219 327.898438 C 337.738281 327.898438 338.578125 327.792969 339.472656 327.589844 C 340.054688 327.472656 340.480469 327.402344 340.757812 327.371094 L 341.125 324.964844 L 339.726562 324.710938 C 338.84375 324.558594 338.1875 324.355469 337.753906 324.105469 C 337.308594 323.851562 337.003906 323.492188 336.835938 323.015625 C 336.667969 322.542969 336.582031 321.855469 336.582031 320.953125 L 336.582031 310.804688 C 336.582031 307.824219 336.046875 305.648438 334.976562 304.273438 C 333.90625 302.90625 332.136719 302.222656 329.667969 302.222656 C 328.359375 302.222656 326.953125 302.492188 325.445312 303.035156 C 323.933594 303.570312 322.664062 304.28125 321.640625 305.164062 C 320.609375 306.050781 320.089844 306.980469 320.089844 307.949219 C 320.089844 309.164062 320.464844 309.949219 321.214844 310.296875 C 321.964844 310.65625 322.890625 310.835938 323.992188 310.835938 C 324.160156 308.949219 324.304688 307.652344 324.425781 306.941406 C 324.542969 306.238281 324.796875 305.707031 325.195312 305.347656 C 325.585938 304.996094 326.21875 304.820312 327.097656 304.820312 C 328.871094 304.820312 330.140625 305.523438 330.90625 306.929688 C 331.671875 308.335938 332.054688 310.125 332.054688 312.292969 L 332.054688 313.828125 C 329.140625 314.035156 326.714844 314.570312 324.78125 315.433594 C 322.855469 316.300781 321.433594 317.371094 320.515625 318.640625 C 319.597656 319.90625 319.140625 321.261719 319.140625 322.695312 C 319.140625 323.796875 319.386719 324.75 319.886719 325.558594 C 320.382812 326.371094 321.050781 326.988281 321.890625 327.417969 C 322.734375 327.851562 323.648438 328.070312 324.632812 328.070312 Z M 332.054688 315.421875 L 332.054688 322.132812 C 331.496094 322.753906 330.765625 323.324219 329.863281 323.839844 C 328.96875 324.359375 328.074219 324.621094 327.179688 324.621094 C 326.527344 324.621094 325.964844 324.453125 325.480469 324.117188 C 325.007812 323.78125 324.648438 323.359375 324.402344 322.855469 C 324.167969 322.359375 324.046875 321.867188 324.046875 321.378906 C 324.046875 319.941406 324.652344 318.734375 325.859375 317.757812 C 327.074219 316.78125 329.140625 316 332.054688 315.421875 Z M 341.007812 305.039062 L 344.230469 306.183594 L 350.894531 328.171875 L 354.21875 327.667969 L 358.898438 310.996094 L 364.023438 328.171875 L 367.351562 327.667969 L 373.566406 306.140625 L 376.59375 304.984375 L 376.925781 302.921875 L 366.203125 302.921875 L 365.929688 305.039062 L 370.125 306.183594 L 366.042969 320.851562 L 365.445312 317.746094 L 361.332031 304.203125 L 357.441406 304.707031 L 352.9375 320.679688 L 352.257812 317.324219 L 348.875 306.140625 L 352.660156 304.984375 L 352.902344 302.921875 L 341.285156 302.921875 Z M 383.507812 328.070312 C 385.519531 328.070312 387.167969 327.609375 388.453125 326.683594 C 389.730469 325.757812 390.636719 324.773438 391.179688 323.726562 L 391.480469 323.726562 L 391.480469 324.152344 C 391.480469 324.761719 391.625 325.355469 391.914062 325.925781 C 392.207031 326.492188 392.679688 326.960938 393.335938 327.335938 C 393.988281 327.710938 394.816406 327.898438 395.824219 327.898438 C 396.605469 327.898438 397.445312 327.792969 398.347656 327.589844 C 398.921875 327.472656 399.351562 327.402344 399.632812 327.371094 L 400 324.964844 L 398.601562 324.710938 C 397.722656 324.558594 397.058594 324.355469 396.617188 324.105469 C 396.179688 323.851562 395.878906 323.492188 395.710938 323.015625 C 395.542969 322.542969 395.457031 321.855469 395.457031 320.953125 L 395.457031 310.804688 C 395.457031 307.824219 394.921875 305.648438 393.851562 304.273438 C 392.773438 302.90625 391.003906 302.222656 388.542969 302.222656 C 387.234375 302.222656 385.824219 302.492188 384.3125 303.035156 C 382.804688 303.570312 381.535156 304.28125 380.503906 305.164062 C 379.480469 306.050781 378.96875 306.980469 378.96875 307.949219 C 378.96875 309.164062 379.34375 309.949219 380.089844 310.296875 C 380.832031 310.65625 381.757812 310.835938 382.867188 310.835938 C 383.035156 308.949219 383.175781 307.652344 383.292969 306.941406 C 383.414062 306.238281 383.671875 305.707031 384.070312 305.347656 C 384.460938 304.996094 385.09375 304.820312 385.976562 304.820312 C 387.742188 304.820312 389.011719 305.523438 389.78125 306.929688 C 390.546875 308.335938 390.929688 310.125 390.929688 312.292969 L 390.929688 313.828125 C 388.015625 314.035156 385.59375 314.570312 383.660156 315.433594 C 381.722656 316.300781 380.300781 317.371094 379.390625 318.640625 C 378.476562 319.90625 378.015625 321.261719 378.015625 322.695312 C 378.015625 323.796875 378.265625 324.75 378.761719 325.558594 C 379.257812 326.371094 379.921875 326.988281 380.757812 327.417969 C 381.597656 327.851562 382.515625 328.070312 383.507812 328.070312 Z M 390.929688 315.421875 L 390.929688 322.132812 C 390.363281 322.753906 389.632812 323.324219 388.738281 323.839844 C 387.84375 324.359375 386.949219 324.621094 386.054688 324.621094 C 385.398438 324.621094 384.832031 324.453125 384.359375 324.117188 C 383.882812 323.78125 383.523438 323.359375 383.28125 322.855469 C 383.035156 322.359375 382.914062 321.867188 382.914062 321.378906 C 382.914062 319.941406 383.519531 318.734375 384.734375 317.757812 C 385.953125 316.78125 388.015625 316 390.929688 315.421875 Z M 390.929688 315.421875 "/>
</g>
<g clip-path="url(#clip2)" clip-rule="nonzero">
<path style=" stroke:none;fill-rule:nonzero;fill:rgb(25.098039%,24.705882%,26.27451%);fill-opacity:1;" d="M 274.847656 248.746094 L 260.851562 248.746094 L 260.851562 234.761719 C 260.851562 234.210938 260.40625 233.765625 259.855469 233.765625 L 240.144531 233.765625 C 239.59375 233.765625 239.148438 234.210938 239.148438 234.761719 L 239.148438 248.746094 L 225.152344 248.746094 C 224.601562 248.746094 224.15625 249.191406 224.15625 249.742188 L 224.15625 269.4375 C 224.15625 269.984375 224.601562 270.429688 225.152344 270.429688 L 239.148438 270.429688 L 239.148438 284.414062 C 239.148438 284.964844 239.59375 285.410156 240.144531 285.410156 L 259.855469 285.410156 C 260.40625 285.410156 260.851562 284.964844 260.851562 284.414062 L 260.851562 270.429688 L 274.847656 270.429688 C 275.398438 270.429688 275.84375 269.984375 275.84375 269.4375 L 275.84375 249.742188 C 275.84375 249.191406 275.398438 248.746094 274.847656 248.746094 Z M 273.851562 268.441406 L 259.855469 268.441406 C 259.308594 268.441406 258.859375 268.886719 258.859375 269.4375 L 258.859375 283.421875 L 241.140625 283.421875 L 241.140625 269.4375 C 241.140625 268.886719 240.695312 268.441406 240.144531 268.441406 L 226.148438 268.441406 L 226.148438 250.738281 L 240.144531 250.738281 C 240.695312 250.738281 241.140625 250.292969 241.140625 249.742188 L 241.140625 235.757812 L 258.859375 235.757812 L 258.859375 249.742188 C 258.859375 250.292969 259.308594 250.738281 259.855469 250.738281 L 273.851562 250.738281 Z M 273.851562 268.441406 "/>
</g>
</g>
</svg>
