<?xml version="1.0" encoding="UTF-8"?>
<svg xmlns="http://www.w3.org/2000/svg" xmlns:xlink="http://www.w3.org/1999/xlink" width="203px" height="203px" viewBox="0 0 203 203" version="1.1">
<defs>
<filter id="alpha" filterUnits="objectBoundingBox" x="0%" y="0%" width="100%" height="100%">
  <feColorMatrix type="matrix" in="SourceGraphic" values="0 0 0 0 1 0 0 0 0 1 0 0 0 0 1 0 0 0 1 0"/>
</filter>
<mask id="mask0">
  <g filter="url(#alpha)">
<rect x="0" y="0" width="203" height="203" style="fill:rgb(0%,0%,0%);fill-opacity:0.101961;stroke:none;"/>
  </g>
</mask>
<clipPath id="clip1">
  <rect x="0" y="0" width="203" height="203"/>
</clipPath>
<g id="surface5" clip-path="url(#clip1)">
<path style=" stroke:none;fill-rule:nonzero;fill:rgb(0%,0%,0%);fill-opacity:1;" d="M 115.101562 125.773438 C 115.101562 125.773438 90.59375 122.832031 82.015625 118.175781 C 73.4375 113.519531 9.714844 111.3125 9.714844 125.773438 C 9.714844 140.234375 82.996094 146.605469 82.996094 146.605469 L 121.472656 144.398438 Z M 115.101562 125.773438 "/>
</g>
<mask id="mask1">
  <g filter="url(#alpha)">
<rect x="0" y="0" width="203" height="203" style="fill:rgb(0%,0%,0%);fill-opacity:0.101961;stroke:none;"/>
  </g>
</mask>
<clipPath id="clip2">
  <rect x="0" y="0" width="203" height="203"/>
</clipPath>
<g id="surface8" clip-path="url(#clip2)">
<path style=" stroke:none;fill-rule:nonzero;fill:rgb(0%,0%,0%);fill-opacity:1;" d="M 107.992188 123.054688 L 113.136719 138.003906 L 193.773438 138.984375 L 193.773438 116.925781 C 193.773438 116.925781 162.890625 109.820312 138.382812 125.015625 C 138.382812 125.015625 109.460938 121.582031 107.992188 123.054688 Z M 107.992188 123.054688 "/>
</g>
<mask id="mask2">
  <g filter="url(#alpha)">
<rect x="0" y="0" width="203" height="203" style="fill:rgb(0%,0%,0%);fill-opacity:0.301961;stroke:none;"/>
  </g>
</mask>
<clipPath id="clip3">
  <rect x="0" y="0" width="203" height="203"/>
</clipPath>
<g id="surface11" clip-path="url(#clip3)">
<path style=" stroke:none;fill-rule:nonzero;fill:rgb(34.117647%,72.156863%,58.039216%);fill-opacity:1;" d="M 57.03125 85.816406 C 57.675781 85.457031 58.871094 86.367188 59.699219 87.855469 C 60.53125 89.339844 60.683594 90.835938 60.039062 91.195312 C 59.394531 91.554688 58.203125 90.640625 57.371094 89.15625 C 56.539062 87.671875 56.390625 86.175781 57.03125 85.816406 Z M 57.03125 85.816406 "/>
</g>
<mask id="mask3">
  <g filter="url(#alpha)">
<rect x="0" y="0" width="203" height="203" style="fill:rgb(0%,0%,0%);fill-opacity:0.301961;stroke:none;"/>
  </g>
</mask>
<clipPath id="clip4">
  <rect x="0" y="0" width="203" height="203"/>
</clipPath>
<g id="surface14" clip-path="url(#clip4)">
<path style="fill:none;stroke-width:1;stroke-linecap:butt;stroke-linejoin:miter;stroke:rgb(24.705882%,23.921569%,33.72549%);stroke-opacity:1;stroke-miterlimit:10;" d="M 14.796318 -0.00917271 C 14.80191 -3.535563 8.171723 -6.403897 0.00238035 -6.414061 C -8.174183 -6.398705 -14.800699 -3.533045 -14.797142 0.00971573 C -14.802735 3.536106 -8.172547 6.40444 -0.00320485 6.414604 C 8.173358 6.399248 14.799874 3.533588 14.796318 -0.00917271 Z M 14.796318 -0.00917271 " transform="matrix(-0.101622,-0.181827,-0.181827,0.101622,58.923836,88.730366)"/>
</g>
<mask id="mask4">
  <g filter="url(#alpha)">
<rect x="0" y="0" width="203" height="203" style="fill:rgb(0%,0%,0%);fill-opacity:0.301961;stroke:none;"/>
  </g>
</mask>
<clipPath id="clip5">
  <rect x="0" y="0" width="203" height="203"/>
</clipPath>
<g id="surface17" clip-path="url(#clip5)">
<path style=" stroke:none;fill-rule:nonzero;fill:rgb(34.117647%,72.156863%,58.039216%);fill-opacity:1;" d="M 28.117188 93.230469 C 29.386719 92.09375 30.8125 91.621094 31.304688 92.167969 C 31.796875 92.71875 31.167969 94.082031 29.898438 95.21875 C 28.628906 96.351562 27.203125 96.828125 26.710938 96.277344 C 26.21875 95.730469 26.851562 94.363281 28.117188 93.230469 Z M 28.117188 93.230469 "/>
</g>
<mask id="mask5">
  <g filter="url(#alpha)">
<rect x="0" y="0" width="203" height="203" style="fill:rgb(0%,0%,0%);fill-opacity:0.301961;stroke:none;"/>
  </g>
</mask>
<clipPath id="clip6">
  <rect x="0" y="0" width="203" height="203"/>
</clipPath>
<g id="surface20" clip-path="url(#clip6)">
<path style="fill:none;stroke-width:1;stroke-linecap:butt;stroke-linejoin:miter;stroke:rgb(24.705882%,23.921569%,33.72549%);stroke-opacity:1;stroke-miterlimit:10;" d="M 6.405604 -0.00857793 C 6.405984 -8.162993 3.545976 -14.789269 -0.000156795 -14.786587 C -3.532316 -14.796413 -6.409675 -8.16937 -6.397548 -0.000980522 C -6.411903 8.165941 -3.539389 14.80619 -0.0057621 14.789535 C 3.540371 14.786854 6.403756 8.172318 6.405604 -0.00857793 Z M 6.405604 -0.00857793 " transform="matrix(-0.138913,-0.155214,-0.155214,0.138913,29.142396,93.796211)"/>
</g>
<mask id="mask6">
  <g filter="url(#alpha)">
<rect x="0" y="0" width="203" height="203" style="fill:rgb(0%,0%,0%);fill-opacity:0.301961;stroke:none;"/>
  </g>
</mask>
<clipPath id="clip7">
  <rect x="0" y="0" width="203" height="203"/>
</clipPath>
<g id="surface23" clip-path="url(#clip7)">
<path style=" stroke:none;fill-rule:nonzero;fill:rgb(34.117647%,72.156863%,58.039216%);fill-opacity:1;" d="M 55.566406 77.789062 C 56.835938 76.652344 58.261719 76.179688 58.753906 76.730469 C 59.246094 77.277344 58.613281 78.644531 57.347656 79.777344 C 56.078125 80.914062 54.652344 81.386719 54.160156 80.839844 C 53.667969 80.289062 54.300781 78.925781 55.566406 77.789062 Z M 55.566406 77.789062 "/>
</g>
<mask id="mask7">
  <g filter="url(#alpha)">
<rect x="0" y="0" width="203" height="203" style="fill:rgb(0%,0%,0%);fill-opacity:0.301961;stroke:none;"/>
  </g>
</mask>
<clipPath id="clip8">
  <rect x="0" y="0" width="203" height="203"/>
</clipPath>
<g id="surface26" clip-path="url(#clip8)">
<path style="fill:none;stroke-width:1;stroke-linecap:butt;stroke-linejoin:miter;stroke:rgb(24.705882%,23.921569%,33.72549%);stroke-opacity:1;stroke-miterlimit:10;" d="M 6.39572 -0.00120546 C 6.410074 -8.168127 3.550067 -14.794402 0.00393358 -14.791721 C -3.5422 -14.78904 -6.405584 -8.174504 -6.407432 0.00639194 C -6.407812 8.160807 -3.535299 14.801056 -0.00167173 14.784401 C 3.530488 14.794227 6.407846 8.167184 6.39572 -0.00120546 Z M 6.39572 -0.00120546 " transform="matrix(-0.138913,-0.155214,-0.155214,0.138913,56.591386,78.356153)"/>
</g>
</defs>
<g id="surface1">
<rect x="0" y="0" width="203" height="203" style="fill:rgb(100%,100%,100%);fill-opacity:1;stroke:none;"/>
<path style=" stroke:none;fill-rule:nonzero;fill:rgb(98.431373%,74.509804%,74.509804%);fill-opacity:1;" d="M 115.101562 125.773438 C 115.101562 125.773438 90.59375 122.832031 82.015625 118.175781 C 73.4375 113.519531 9.714844 111.3125 9.714844 125.773438 C 9.714844 140.234375 82.996094 146.605469 82.996094 146.605469 L 121.472656 144.398438 Z M 115.101562 125.773438 "/>
<use xlink:href="#surface5" mask="url(#mask0)"/>
<path style=" stroke:none;fill-rule:nonzero;fill:rgb(86.666667%,83.529412%,93.72549%);fill-opacity:1;" d="M 107.992188 123.078125 L 113.136719 138.027344 L 193.773438 139.007812 L 193.773438 116.949219 C 193.773438 116.949219 162.890625 109.84375 138.382812 125.039062 C 138.382812 125.039062 109.460938 121.605469 107.992188 123.078125 Z M 107.992188 123.078125 "/>
<use xlink:href="#surface8" mask="url(#mask1)"/>
<path style=" stroke:none;fill-rule:nonzero;fill:rgb(24.705882%,23.921569%,33.72549%);fill-opacity:1;" d="M 15.804688 116.828125 C 15.804688 117.664062 17.679688 118.285156 17.863281 119.089844 C 18.046875 119.890625 16.933594 121.105469 17.285156 121.867188 C 17.648438 122.648438 18.078125 123.394531 18.570312 124.101562 C 19.03125 124.765625 20.457031 124.667969 21.042969 125.285156 C 21.613281 125.847656 22.21875 126.375 22.855469 126.863281 C 23.476562 127.378906 24.316406 127.488281 25.023438 127.964844 C 25.691406 128.414062 25.609375 130.070312 26.351562 130.480469 C 27.0625 130.875 28.144531 130.558594 28.914062 130.910156 C 29.652344 131.25 30.042969 132.476562 30.832031 132.777344 C 31.589844 133.066406 32.53125 132.941406 33.335938 133.191406 C 34.117188 133.433594 34.988281 133.394531 35.800781 133.597656 C 36.59375 133.796875 37.199219 134.984375 38.023438 135.144531 C 38.824219 135.300781 39.765625 134.882812 40.597656 135 C 41.40625 135.117188 42.351562 134.089844 43.183594 134.167969 C 44 134.246094 44.769531 134.71875 45.605469 134.757812 C 46.425781 134.796875 47.234375 135.15625 48.070312 135.15625 C 48.90625 135.15625 49.769531 135.941406 50.589844 135.902344 C 51.425781 135.863281 52.183594 134.675781 53 134.601562 C 53.832031 134.523438 54.828125 135.765625 55.636719 135.648438 C 56.46875 135.53125 57.125 134.316406 57.929688 134.160156 C 58.753906 134 59.816406 134.867188 60.609375 134.667969 C 61.425781 134.464844 61.910156 133.050781 62.6875 132.808594 C 63.492188 132.558594 64.488281 132.898438 65.25 132.609375 C 66.039062 132.308594 67 132.355469 67.738281 132.019531 C 68.503906 131.664062 69.058594 130.828125 69.765625 130.4375 C 70.507812 130.027344 70.851562 129.007812 71.519531 128.554688 C 72.226562 128.082031 73.300781 128.140625 73.917969 127.625 C 74.574219 127.082031 75.800781 127.050781 76.355469 126.464844 C 76.9375 125.847656 77.175781 124.804688 77.636719 124.144531 C 78.121094 123.449219 77.167969 121.980469 77.507812 121.242188 C 77.859375 120.480469 79.332031 120.171875 79.511719 119.371094 C 79.703125 118.535156 79.796875 117.683594 79.800781 116.828125 C 79.800781 115.992188 78.542969 115.355469 78.359375 114.550781 C 78.175781 113.75 79.101562 112.601562 78.75 111.839844 C 78.410156 111.101562 78.453125 109.972656 77.96875 109.277344 C 77.507812 108.617188 76.355469 108.355469 75.773438 107.738281 C 75.21875 107.152344 74.230469 106.988281 73.574219 106.445312 C 72.957031 105.929688 73.035156 104.375 72.328125 103.898438 C 71.660156 103.445312 70.722656 103.242188 69.980469 102.828125 C 69.273438 102.4375 68.269531 102.503906 67.5 102.152344 C 66.761719 101.8125 65.609375 102.480469 64.820312 102.179688 C 64.058594 101.890625 63.441406 101.257812 62.636719 101.007812 C 61.859375 100.765625 61.492188 98.917969 60.675781 98.714844 C 59.886719 98.515625 58.910156 98.84375 58.085938 98.683594 C 57.285156 98.527344 56.203125 99.988281 55.375 99.867188 C 54.5625 99.753906 53.957031 97.808594 53.121094 97.730469 C 52.304688 97.652344 51.386719 98.660156 50.550781 98.621094 C 49.730469 98.585938 48.90625 99.175781 48.070312 99.175781 C 47.234375 99.175781 46.402344 98.367188 45.582031 98.402344 C 44.746094 98.441406 44.011719 99.511719 43.195312 99.589844 C 42.359375 99.667969 41.335938 98.035156 40.527344 98.152344 C 39.695312 98.269531 39.054688 99.53125 38.25 99.6875 C 37.425781 99.847656 36.394531 99.0625 35.601562 99.261719 C 34.785156 99.464844 34.296875 100.804688 33.515625 101.046875 C 32.714844 101.296875 32.21875 102.242188 31.457031 102.53125 C 30.667969 102.832031 29.203125 101.429688 28.464844 101.765625 C 27.695312 102.121094 27.03125 102.730469 26.324219 103.125 C 25.582031 103.535156 24.402344 103.328125 23.730469 103.78125 C 23.027344 104.253906 22.855469 105.527344 22.234375 106.042969 C 21.578125 106.589844 20.5 106.753906 19.945312 107.339844 C 19.363281 107.957031 19.28125 109.070312 18.820312 109.730469 C 18.332031 110.425781 18.347656 111.390625 18.011719 112.125 C 17.65625 112.886719 16.71875 113.464844 16.535156 114.265625 C 16.351562 115.070312 15.804688 115.992188 15.804688 116.828125 Z M 15.804688 116.828125 "/>
<path style=" stroke:none;fill-rule:nonzero;fill:rgb(98.431373%,74.509804%,74.509804%);fill-opacity:1;" d="M 104.074219 132.144531 C 104.074219 132.144531 76.378906 117.929688 58.488281 123.324219 C 40.59375 128.714844 15.597656 119.402344 12.65625 122.585938 C 9.714844 125.773438 5.546875 160.085938 40.839844 162.046875 C 76.132812 164.007812 106.277344 156.164062 106.277344 156.164062 Z M 104.074219 132.144531 "/>
<path style=" stroke:none;fill-rule:nonzero;fill:rgb(86.666667%,83.529412%,93.72549%);fill-opacity:1;" d="M 110.59375 130.632812 C 110.59375 130.632812 99.660156 129.941406 100.148438 133.859375 C 100.640625 137.78125 101.128906 168.171875 104.070312 168.910156 C 107.011719 169.644531 130.292969 169.644531 139.851562 169.644531 L 193.773438 169.644531 L 193.773438 122.65625 C 193.773438 122.65625 155.539062 120.382812 136.421875 129.941406 C 136.421875 129.941406 113.4375 129.609375 110.59375 130.632812 Z M 110.59375 130.632812 "/>
<path style="fill:none;stroke-width:1;stroke-linecap:butt;stroke-linejoin:miter;stroke:rgb(24.705882%,23.921569%,33.72549%);stroke-opacity:1;stroke-miterlimit:10;" d="M 802.240529 236.780844 C 792.001307 237.362192 782.98104 243.663251 778.930359 253.077335 C 773.098128 267.160953 780.59939 283.719987 791.870035 293.996716 C 803.14068 304.254691 817.618115 310.124428 830.764075 317.850727 C 848.410793 328.221221 864.294714 342.604889 873.127449 361.095499 C 881.960184 379.567355 882.897842 402.446202 872.508595 420.09292 C 862.869474 436.483176 845.335276 446.272322 828.626216 455.330095 " transform="matrix(-0.208298,0,0,0.208298,226.480338,7.819578)"/>
<path style="fill:none;stroke-width:1;stroke-linecap:butt;stroke-linejoin:miter;stroke:rgb(24.705882%,23.921569%,33.72549%);stroke-opacity:1;stroke-miterlimit:10;" d="M 849.312597 150.888157 C 839.073376 151.469505 830.053109 157.770565 826.002428 167.184648 C 820.170197 181.268266 827.671458 197.827301 838.942104 208.085276 C 850.193996 218.362004 864.67143 224.231741 877.817391 231.95804 C 895.482861 242.328534 911.348029 256.712203 920.180765 275.184059 C 929.032253 293.674668 929.969911 316.553516 919.580664 334.200233 C 909.941543 350.590489 892.407344 360.379636 875.679531 369.437409 " transform="matrix(-0.208298,0,0,0.208298,226.480683,7.820253)"/>
<path style="fill:none;stroke-width:1;stroke-linecap:butt;stroke-linejoin:miter;stroke:rgb(24.705882%,23.921569%,33.72549%);stroke-opacity:1;stroke-miterlimit:10;" d="M 1004.047466 170.635759 C 995.608547 164.841035 984.600446 164.297193 975.636439 169.266779 C 962.415465 176.8243 958.214759 194.508524 960.840201 209.5298 C 963.446889 224.551076 971.30446 238.053346 976.967913 252.211977 C 984.581693 271.208922 988.332324 292.306219 984.000345 312.334587 C 979.68712 332.344202 966.409887 351.022343 947.394189 358.61737 C 929.747472 365.668556 909.887882 362.686805 891.134729 359.592534 " transform="matrix(-0.208298,0,0,0.208298,226.481224,7.820143)"/>
<path style=" stroke:none;fill-rule:nonzero;fill:rgb(34.117647%,72.156863%,58.039216%);fill-opacity:1;" d="M 39.863281 77.492188 C 39.863281 75.914062 42.496094 74.636719 45.742188 74.636719 C 48.992188 74.636719 51.625 75.914062 51.625 77.492188 C 51.625 79.070312 48.992188 80.347656 45.742188 80.347656 C 42.496094 80.347656 39.863281 79.070312 39.863281 77.492188 Z M 39.863281 77.492188 "/>
<path style="fill:none;stroke-width:1;stroke-linecap:butt;stroke-linejoin:miter;stroke:rgb(24.705882%,23.921569%,33.72549%);stroke-opacity:1;stroke-miterlimit:10;" d="M 28.236474 0.00797918 C 28.236474 -7.568295 15.596848 -13.719329 -0.00577561 -13.719329 C -15.589646 -13.719329 -28.248025 -7.568295 -28.248025 0.00797918 C -28.248025 7.584253 -15.589646 13.716534 -0.00577561 13.716534 C 15.596848 13.716534 28.236474 7.584253 28.236474 0.00797918 Z M 28.236474 0.00797918 " transform="matrix(-0.208298,0,0,0.208298,46.479266,77.002244)"/>
<path style=" stroke:none;fill-rule:nonzero;fill:rgb(34.117647%,72.156863%,58.039216%);fill-opacity:1;" d="M 27.117188 75.042969 C 27.117188 73.464844 29.75 72.183594 33 72.183594 C 36.25 72.183594 38.882812 73.464844 38.882812 75.042969 C 38.882812 76.621094 36.25 77.898438 33 77.898438 C 29.75 77.898438 27.117188 76.621094 27.117188 75.042969 Z M 27.117188 75.042969 "/>
<path style="fill:none;stroke-width:1;stroke-linecap:butt;stroke-linejoin:miter;stroke:rgb(24.705882%,23.921569%,33.72549%);stroke-opacity:1;stroke-miterlimit:10;" d="M 28.245673 -0.00318894 C 28.245673 -7.579463 15.587294 -13.711744 0.00342346 -13.711744 C -15.5992 -13.711744 -28.238826 -7.579463 -28.238826 -0.00318894 C -28.238826 7.573085 -15.5992 13.724119 0.00342346 13.724119 C 15.587294 13.724119 28.245673 7.573085 28.245673 -0.00318894 Z M 28.245673 -0.00318894 " transform="matrix(-0.208298,0,0,0.208298,33.735088,74.551445)"/>
<path style=" stroke:none;fill-rule:nonzero;fill:rgb(34.117647%,72.156863%,58.039216%);fill-opacity:1;" d="M 25.15625 85.824219 C 25.15625 84.246094 27.789062 82.96875 31.039062 82.96875 C 34.289062 82.96875 36.921875 84.246094 36.921875 85.824219 C 36.921875 87.402344 34.289062 88.683594 31.039062 88.683594 C 27.789062 88.683594 25.15625 87.402344 25.15625 85.824219 Z M 25.15625 85.824219 "/>
<path style="fill:none;stroke-width:1;stroke-linecap:butt;stroke-linejoin:miter;stroke:rgb(24.705882%,23.921569%,33.72549%);stroke-opacity:1;stroke-miterlimit:10;" d="M 28.247125 0.00455741 C 28.247125 -7.571717 15.588747 -13.722751 0.00487618 -13.722751 C -15.597748 -13.722751 -28.237373 -7.571717 -28.237373 0.00455741 C -28.237373 7.580831 -15.597748 13.713113 0.00487618 13.713113 C 15.588747 13.713113 28.247125 7.580831 28.247125 0.00455741 Z M 28.247125 0.00455741 " transform="matrix(-0.208298,0,0,0.208298,31.774453,85.334988)"/>
<path style=" stroke:none;fill-rule:nonzero;fill:rgb(34.117647%,72.156863%,58.039216%);fill-opacity:1;" d="M 26.382812 58.867188 C 26.382812 57.289062 29.015625 56.007812 32.265625 56.007812 C 35.511719 56.007812 38.148438 57.289062 38.148438 58.867188 C 38.148438 60.445312 35.511719 61.722656 32.265625 61.722656 C 29.015625 61.722656 26.382812 60.445312 26.382812 58.867188 Z M 26.382812 58.867188 "/>
<path style="fill:none;stroke-width:1;stroke-linecap:butt;stroke-linejoin:miter;stroke:rgb(24.705882%,23.921569%,33.72549%);stroke-opacity:1;stroke-miterlimit:10;" d="M 28.241493 -0.0054806 C 28.241493 -7.581755 15.601867 -13.714036 -0.000756607 -13.714036 C -15.60338 -13.714036 -28.243006 -7.581755 -28.243006 -0.0054806 C -28.243006 7.570793 -15.60338 13.721828 -0.000756607 13.721828 C 15.601867 13.721828 28.241493 7.570793 28.241493 -0.0054806 Z M 28.241493 -0.0054806 " transform="matrix(-0.208298,0,0,0.208298,32.999842,58.376142)"/>
<path style=" stroke:none;fill-rule:nonzero;fill:rgb(34.117647%,72.156863%,58.039216%);fill-opacity:1;" d="M 41.085938 57.152344 C 41.085938 55.574219 43.722656 54.292969 46.96875 54.292969 C 50.21875 54.292969 52.851562 55.574219 52.851562 57.152344 C 52.851562 58.730469 50.21875 60.007812 46.96875 60.007812 C 43.722656 60.007812 41.085938 58.730469 41.085938 57.152344 Z M 41.085938 57.152344 "/>
<path style="fill:none;stroke-width:1;stroke-linecap:butt;stroke-linejoin:miter;stroke:rgb(24.705882%,23.921569%,33.72549%);stroke-opacity:1;stroke-miterlimit:10;" d="M 28.230841 -0.00207563 C 28.230841 -7.57835 15.591215 -13.710631 0.00734476 -13.710631 C -15.595279 -13.710631 -28.234904 -7.57835 -28.234904 -0.00207563 C -28.234904 7.574198 -15.595279 13.725233 0.00734476 13.725233 C 15.591215 13.725233 28.230841 7.574198 28.230841 -0.00207563 Z M 28.230841 -0.00207563 " transform="matrix(-0.208298,0,0,0.208298,47.704655,56.660589)"/>
<path style=" stroke:none;fill-rule:nonzero;fill:rgb(34.117647%,72.156863%,58.039216%);fill-opacity:1;" d="M 34.46875 51.023438 C 34.46875 49.445312 37.105469 48.167969 40.351562 48.167969 C 43.601562 48.167969 46.234375 49.445312 46.234375 51.023438 C 46.234375 52.601562 43.601562 53.878906 40.351562 53.878906 C 37.105469 53.878906 34.46875 52.601562 34.46875 51.023438 Z M 34.46875 51.023438 "/>
<path style="fill:none;stroke-width:1;stroke-linecap:butt;stroke-linejoin:miter;stroke:rgb(24.705882%,23.921569%,33.72549%);stroke-opacity:1;stroke-miterlimit:10;" d="M 28.230921 0.00755911 C 28.230921 -7.568715 15.591296 -13.719749 0.00742541 -13.719749 C -15.595198 -13.719749 -28.234824 -7.568715 -28.234824 0.00755911 C -28.234824 7.583833 -15.595198 13.716114 0.00742541 13.716114 C 15.591296 13.716114 28.230921 7.583833 28.230921 0.00755911 Z M 28.230921 0.00755911 " transform="matrix(-0.208298,0,0,0.208298,41.087484,50.533582)"/>
<path style=" stroke:none;fill-rule:nonzero;fill:rgb(34.117647%,72.156863%,58.039216%);fill-opacity:1;" d="M 20.011719 52.25 C 20.011719 50.671875 22.644531 49.390625 25.890625 49.390625 C 29.140625 49.390625 31.773438 50.671875 31.773438 52.25 C 31.773438 53.828125 29.140625 55.105469 25.890625 55.105469 C 22.644531 55.105469 20.011719 53.828125 20.011719 52.25 Z M 20.011719 52.25 "/>
<path style="fill:none;stroke-width:1;stroke-linecap:butt;stroke-linejoin:miter;stroke:rgb(24.705882%,23.921569%,33.72549%);stroke-opacity:1;stroke-miterlimit:10;" d="M 28.236716 -0.00565871 C 28.236716 -7.581933 15.59709 -13.714214 -0.00553365 -13.714214 C -15.589404 -13.714214 -28.247783 -7.581933 -28.247783 -0.00565871 C -28.247783 7.570615 -15.589404 13.72165 -0.00553365 13.72165 C 15.59709 13.72165 28.236716 7.570615 28.236716 -0.00565871 Z M 28.236716 -0.00565871 " transform="matrix(-0.208298,0,0,0.208298,26.627754,51.758991)"/>
<path style=" stroke:none;fill-rule:nonzero;fill:rgb(34.117647%,72.156863%,58.039216%);fill-opacity:1;" d="M 9.226562 60.335938 C 9.226562 58.757812 11.859375 57.480469 15.109375 57.480469 C 18.359375 57.480469 20.992188 58.757812 20.992188 60.335938 C 20.992188 61.914062 18.359375 63.195312 15.109375 63.195312 C 11.859375 63.195312 9.226562 61.914062 9.226562 60.335938 Z M 9.226562 60.335938 "/>
<path style="fill:none;stroke-width:1;stroke-linecap:butt;stroke-linejoin:miter;stroke:rgb(24.705882%,23.921569%,33.72549%);stroke-opacity:1;stroke-miterlimit:10;" d="M 28.244559 0.00491243 C 28.244559 -7.571362 15.604934 -13.722396 0.00231015 -13.722396 C -15.600314 -13.722396 -28.239939 -7.571362 -28.239939 0.00491243 C -28.239939 7.581186 -15.600314 13.713468 0.00231015 13.713468 C 15.604934 13.713468 28.244559 7.581186 28.244559 0.00491243 Z M 28.244559 0.00491243 " transform="matrix(-0.208298,0,0,0.208298,15.844231,59.846633)"/>
<path style=" stroke:none;fill-rule:nonzero;fill:rgb(34.117647%,72.156863%,58.039216%);fill-opacity:1;" d="M 47.214844 46.121094 C 47.214844 44.542969 49.847656 43.265625 53.097656 43.265625 C 56.34375 43.265625 58.980469 44.542969 58.980469 46.121094 C 58.980469 47.699219 56.34375 48.980469 53.097656 48.980469 C 49.847656 48.980469 47.214844 47.699219 47.214844 46.121094 Z M 47.214844 46.121094 "/>
<path style="fill:none;stroke-width:1;stroke-linecap:butt;stroke-linejoin:miter;stroke:rgb(24.705882%,23.921569%,33.72549%);stroke-opacity:1;stroke-miterlimit:10;" d="M 28.240476 0.00397603 C 28.240476 -7.572298 15.60085 -13.723332 -0.00177366 -13.723332 C -15.604397 -13.723332 -28.244023 -7.572298 -28.244023 0.00397603 C -28.244023 7.58025 -15.604397 13.712531 -0.00177366 13.712531 C 15.60085 13.712531 28.240476 7.58025 28.240476 0.00397603 Z M 28.240476 0.00397603 " transform="matrix(-0.208298,0,0,0.208298,53.831662,45.631984)"/>
<path style=" stroke:none;fill-rule:nonzero;fill:rgb(34.117647%,72.156863%,58.039216%);fill-opacity:1;" d="M 43.539062 36.808594 C 43.539062 35.230469 46.171875 33.953125 49.421875 33.953125 C 52.667969 33.953125 55.300781 35.230469 55.300781 36.808594 C 55.300781 38.386719 52.667969 39.667969 49.421875 39.667969 C 46.171875 39.667969 43.539062 38.386719 43.539062 36.808594 Z M 43.539062 36.808594 "/>
<path style="fill:none;stroke-width:1;stroke-linecap:butt;stroke-linejoin:miter;stroke:rgb(24.705882%,23.921569%,33.72549%);stroke-opacity:1;stroke-miterlimit:10;" d="M 28.238523 0.00662271 C 28.238523 -7.569651 15.598898 -13.720686 -0.00372591 -13.720686 C -15.587596 -13.720686 -28.245975 -7.569651 -28.245975 0.00662271 C -28.245975 7.582897 -15.587596 13.715178 -0.00372591 13.715178 C 15.598898 13.715178 28.238523 7.582897 28.238523 0.00662271 Z M 28.238523 0.00662271 " transform="matrix(-0.208298,0,0,0.208298,50.155474,36.318933)"/>
<path style=" stroke:none;fill-rule:nonzero;fill:rgb(34.117647%,72.156863%,58.039216%);fill-opacity:1;" d="M 9.472656 43.671875 C 9.472656 42.09375 12.105469 40.8125 15.355469 40.8125 C 18.601562 40.8125 21.234375 42.09375 21.234375 43.671875 C 21.234375 45.25 18.601562 46.527344 15.355469 46.527344 C 12.105469 46.527344 9.472656 45.25 9.472656 43.671875 Z M 9.472656 43.671875 "/>
<path style="fill:none;stroke-width:1;stroke-linecap:butt;stroke-linejoin:miter;stroke:rgb(24.705882%,23.921569%,33.72549%);stroke-opacity:1;stroke-miterlimit:10;" d="M 28.239702 -0.00709463 C 28.239702 -7.583369 15.600076 -13.71565 -0.00254755 -13.71565 C -15.605171 -13.71565 -28.244797 -7.583369 -28.244797 -0.00709463 C -28.244797 7.569179 -15.605171 13.720214 -0.00254755 13.720214 C 15.600076 13.720214 28.239702 7.569179 28.239702 -0.00709463 Z M 28.239702 -0.00709463 " transform="matrix(-0.208298,0,0,0.208298,16.089313,43.181165)"/>
<path style=" stroke:none;fill-rule:nonzero;fill:rgb(34.117647%,72.156863%,58.039216%);fill-opacity:1;" d="M 63.632812 66.21875 C 63.632812 64.640625 66.269531 63.363281 69.515625 63.363281 C 72.765625 63.363281 75.398438 64.640625 75.398438 66.21875 C 75.398438 67.796875 72.765625 69.074219 69.515625 69.074219 C 66.269531 69.074219 63.632812 67.796875 63.632812 66.21875 Z M 63.632812 66.21875 "/>
<path style="fill:none;stroke-width:1;stroke-linecap:butt;stroke-linejoin:miter;stroke:rgb(24.705882%,23.921569%,33.72549%);stroke-opacity:1;stroke-miterlimit:10;" d="M 28.233326 0.00917314 C 28.233326 -7.567101 15.593701 -13.718135 -0.00892302 -13.718135 C -15.592794 -13.718135 -28.232419 -7.567101 -28.232419 0.00917314 C -28.232419 7.566694 -15.592794 13.717728 -0.00892302 13.717728 C 15.593701 13.717728 28.233326 7.566694 28.233326 0.00917314 Z M 28.233326 0.00917314 " transform="matrix(-0.208298,0,0,0.208298,70.252048,65.728558)"/>
<path style=" stroke:none;fill-rule:nonzero;fill:rgb(34.117647%,72.156863%,58.039216%);fill-opacity:1;" d="M 43.292969 64.75 C 43.292969 63.171875 45.925781 61.890625 49.175781 61.890625 C 52.421875 61.890625 55.058594 63.171875 55.058594 64.75 C 55.058594 66.324219 52.421875 67.605469 49.175781 67.605469 C 45.925781 67.605469 43.292969 66.324219 43.292969 64.75 Z M 43.292969 64.75 "/>
<path style="fill:none;stroke-width:1;stroke-linecap:butt;stroke-linejoin:miter;stroke:rgb(24.705882%,23.921569%,33.72549%);stroke-opacity:1;stroke-miterlimit:10;" d="M 28.243381 -0.00131734 C 28.243381 -7.577591 15.603756 -13.709873 0.00113179 -13.709873 C -15.601492 -13.709873 -28.241117 -7.577591 -28.241117 -0.00131734 C -28.241117 7.574957 -15.601492 13.707238 0.00113179 13.707238 C 15.603756 13.707238 28.243381 7.574957 28.243381 -0.00131734 Z M 28.243381 -0.00131734 " transform="matrix(-0.208298,0,0,0.208298,49.910392,64.258087)"/>
<path style=" stroke:none;fill-rule:nonzero;fill:rgb(34.117647%,72.156863%,58.039216%);fill-opacity:1;" d="M 16.578125 66.953125 C 16.578125 65.375 19.210938 64.097656 22.460938 64.097656 C 25.710938 64.097656 28.34375 65.375 28.34375 66.953125 C 28.34375 68.53125 25.710938 69.8125 22.460938 69.8125 C 19.210938 69.8125 16.578125 68.53125 16.578125 66.953125 Z M 16.578125 66.953125 "/>
<path style="fill:none;stroke-width:1;stroke-linecap:butt;stroke-linejoin:miter;stroke:rgb(24.705882%,23.921569%,33.72549%);stroke-opacity:1;stroke-miterlimit:10;" d="M 28.229808 0.00499308 C 28.229808 -7.571281 15.590183 -13.722315 0.0063121 -13.722315 C -15.596312 -13.722315 -28.235937 -7.571281 -28.235937 0.00499308 C -28.235937 7.581267 -15.596312 13.713548 0.0063121 13.713548 C 15.590183 13.713548 28.229808 7.581267 28.229808 0.00499308 Z M 28.229808 0.00499308 " transform="matrix(-0.208298,0,0,0.208298,23.196627,66.463804)"/>
<path style=" stroke:none;fill-rule:nonzero;fill:rgb(34.117647%,72.156863%,58.039216%);fill-opacity:1;" d="M 30.792969 67.933594 C 30.792969 66.355469 33.425781 65.078125 36.675781 65.078125 C 39.925781 65.078125 42.558594 66.355469 42.558594 67.933594 C 42.558594 69.511719 39.925781 70.792969 36.675781 70.792969 C 33.425781 70.792969 30.792969 69.511719 30.792969 67.933594 Z M 30.792969 67.933594 "/>
<path style="fill:none;stroke-width:1;stroke-linecap:butt;stroke-linejoin:miter;stroke:rgb(24.705882%,23.921569%,33.72549%);stroke-opacity:1;stroke-miterlimit:10;" d="M 28.247722 0.00576817 C 28.247722 -7.570506 15.589344 -13.72154 0.00547316 -13.72154 C -15.597151 -13.72154 -28.236776 -7.570506 -28.236776 0.00576817 C -28.236776 7.582042 -15.597151 13.714323 0.00547316 13.714323 C 15.589344 13.714323 28.247722 7.582042 28.247722 0.00576817 Z M 28.247722 0.00576817 " transform="matrix(-0.208298,0,0,0.208298,37.411296,67.444111)"/>
<path style=" stroke:none;fill-rule:nonzero;fill:rgb(34.117647%,72.156863%,58.039216%);fill-opacity:1;" d="M 29.8125 43.425781 C 29.8125 41.847656 32.445312 40.570312 35.695312 40.570312 C 38.945312 40.570312 41.578125 41.847656 41.578125 43.425781 C 41.578125 45.003906 38.945312 46.285156 35.695312 46.285156 C 32.445312 46.285156 29.8125 45.003906 29.8125 43.425781 Z M 29.8125 43.425781 "/>
<path style="fill:none;stroke-width:1;stroke-linecap:butt;stroke-linejoin:miter;stroke:rgb(24.705882%,23.921569%,33.72549%);stroke-opacity:1;stroke-miterlimit:10;" d="M 28.2484 0.00680082 C 28.2484 -7.569473 15.590021 -13.720508 0.00615079 -13.720508 C -15.596473 -13.720508 -28.236098 -7.569473 -28.236098 0.00680082 C -28.236098 7.583075 -15.596473 13.715356 0.00615079 13.715356 C 15.590021 13.715356 28.2484 7.583075 28.2484 0.00680082 Z M 28.2484 0.00680082 " transform="matrix(-0.208298,0,0,0.208298,36.430969,42.936083)"/>
<path style=" stroke:none;fill-rule:nonzero;fill:rgb(34.117647%,72.156863%,58.039216%);fill-opacity:1;" d="M 55.058594 58.621094 C 55.058594 57.042969 57.691406 55.765625 60.9375 55.765625 C 64.1875 55.765625 66.820312 57.042969 66.820312 58.621094 C 66.820312 60.199219 64.1875 61.476562 60.9375 61.476562 C 57.691406 61.476562 55.058594 60.199219 55.058594 58.621094 Z M 55.058594 58.621094 "/>
<path style="fill:none;stroke-width:1;stroke-linecap:butt;stroke-linejoin:miter;stroke:rgb(24.705882%,23.921569%,33.72549%);stroke-opacity:1;stroke-miterlimit:10;" d="M 28.23486 0.00841486 C 28.23486 -7.567859 15.595234 -13.718894 -0.00738964 -13.718894 C -15.59126 -13.718894 -28.230886 -7.567859 -28.230886 0.00841486 C -28.230886 7.565936 -15.59126 13.71697 -0.00738964 13.71697 C 15.595234 13.71697 28.23486 7.565936 28.23486 0.00841486 Z M 28.23486 0.00841486 " transform="matrix(-0.208298,0,0,0.208298,61.674242,58.13106)"/>
<path style=" stroke:none;fill-rule:nonzero;fill:rgb(34.117647%,72.156863%,58.039216%);fill-opacity:1;" d="M 51.625 69.648438 C 51.625 68.070312 54.257812 66.792969 57.507812 66.792969 C 60.757812 66.792969 63.390625 68.070312 63.390625 69.648438 C 63.390625 71.226562 60.757812 72.507812 57.507812 72.507812 C 54.257812 72.507812 51.625 71.226562 51.625 69.648438 Z M 51.625 69.648438 "/>
<path style="fill:none;stroke-width:1;stroke-linecap:butt;stroke-linejoin:miter;stroke:rgb(24.705882%,23.921569%,33.72549%);stroke-opacity:1;stroke-miterlimit:10;" d="M 28.246705 0.00226574 C 28.246705 -7.574008 15.588327 -13.725043 0.00445611 -13.725043 C -15.598168 -13.725043 -28.237793 -7.574008 -28.237793 0.00226574 C -28.237793 7.57854 -15.598168 13.710821 0.00445611 13.710821 C 15.588327 13.710821 28.246705 7.57854 28.246705 0.00226574 Z M 28.246705 0.00226574 " transform="matrix(-0.208298,0,0,0.208298,58.243116,69.159684)"/>
<use xlink:href="#surface11" mask="url(#mask2)"/>
<use xlink:href="#surface14" mask="url(#mask3)"/>
<use xlink:href="#surface17" mask="url(#mask4)"/>
<use xlink:href="#surface20" mask="url(#mask5)"/>
<use xlink:href="#surface23" mask="url(#mask6)"/>
<use xlink:href="#surface26" mask="url(#mask7)"/>
</g>
</svg>
